<svg id="visual" viewBox="0 0 900 600" width="900" height="600" xmlns="http://www.w3.org/2000/svg" xmlns:xlink="http://www.w3.org/1999/xlink" version="1.1"><rect x="0" y="0" width="900" height="600" fill="#3d24c7"></rect><g transform="translate(435.0302710835085 296.37972284836724)"><path d="M210.2 -242C293.4 -228.8 396.4 -195.5 424.5 -132.4C452.7 -69.2 406.1 23.8 342.2 77.4C278.2 131 197 145.1 137.1 169C77.2 192.9 38.6 226.4 -12.6 243.8C-63.9 261.2 -127.7 262.5 -195.6 241.2C-263.4 219.9 -335.2 176.1 -372.9 109.5C-410.5 43 -414 -46.4 -376.8 -110.6C-339.7 -174.8 -261.8 -214 -192.2 -231.6C-122.7 -249.1 -61.3 -245.1 1.1 -246.6C63.5 -248 127 -255.1 210.2 -242" fill="#698cfa"></path></g></svg>