<svg id="visual" viewBox="0 0 900 600" width="900" height="600" xmlns="http://www.w3.org/2000/svg" xmlns:xlink="http://www.w3.org/1999/xlink" version="1.1"><rect x="0" y="0" width="900" height="600" fill="#2276b6"></rect><defs><linearGradient id="grad1_0" x1="33.3%" y1="0%" x2="100%" y2="100%"><stop offset="20%" stop-color="#090943" stop-opacity="1"></stop><stop offset="80%" stop-color="#090943" stop-opacity="1"></stop></linearGradient></defs><defs><linearGradient id="grad1_1" x1="33.3%" y1="0%" x2="100%" y2="100%"><stop offset="20%" stop-color="#090943" stop-opacity="1"></stop><stop offset="80%" stop-color="#102c6a" stop-opacity="1"></stop></linearGradient></defs><defs><linearGradient id="grad1_2" x1="33.3%" y1="0%" x2="100%" y2="100%"><stop offset="20%" stop-color="#175090" stop-opacity="1"></stop><stop offset="80%" stop-color="#102c6a" stop-opacity="1"></stop></linearGradient></defs><defs><linearGradient id="grad1_3" x1="33.3%" y1="0%" x2="100%" y2="100%"><stop offset="20%" stop-color="#175090" stop-opacity="1"></stop><stop offset="80%" stop-color="#2276b6" stop-opacity="1"></stop></linearGradient></defs><defs><linearGradient id="grad2_0" x1="0%" y1="0%" x2="66.7%" y2="100%"><stop offset="20%" stop-color="#090943" stop-opacity="1"></stop><stop offset="80%" stop-color="#090943" stop-opacity="1"></stop></linearGradient></defs><defs><linearGradient id="grad2_1" x1="0%" y1="0%" x2="66.7%" y2="100%"><stop offset="20%" stop-color="#102c6a" stop-opacity="1"></stop><stop offset="80%" stop-color="#090943" stop-opacity="1"></stop></linearGradient></defs><defs><linearGradient id="grad2_2" x1="0%" y1="0%" x2="66.7%" y2="100%"><stop offset="20%" stop-color="#102c6a" stop-opacity="1"></stop><stop offset="80%" stop-color="#175090" stop-opacity="1"></stop></linearGradient></defs><defs><linearGradient id="grad2_3" x1="0%" y1="0%" x2="66.7%" y2="100%"><stop offset="20%" stop-color="#2276b6" stop-opacity="1"></stop><stop offset="80%" stop-color="#175090" stop-opacity="1"></stop></linearGradient></defs><g transform="translate(900, 0)"><path d="M0 486.7C-73.4 485.3 -146.7 483.9 -181.4 437.9C-216.1 391.9 -212 301.4 -258.8 258.8C-305.6 216.2 -403.2 221.4 -449.7 186.3C-496.2 151.1 -491.5 75.6 -486.7 0L0 0Z" fill="#1c63a3"></path><path d="M0 365.1C-55 364 -110 362.9 -136 328.4C-162 294 -159 226.1 -194.1 194.1C-229.2 162.1 -302.4 166.1 -337.3 139.7C-372.1 113.3 -368.6 56.7 -365.1 0L0 0Z" fill="#133e7d"></path><path d="M0 243.4C-36.7 242.7 -73.4 241.9 -90.7 219C-108 196 -106 150.7 -129.4 129.4C-152.8 108.1 -201.6 110.7 -224.8 93.1C-248.1 75.6 -245.7 37.8 -243.4 0L0 0Z" fill="#0c1b56"></path><path d="M0 121.7C-18.3 121.3 -36.7 121 -45.3 109.5C-54 98 -53 75.4 -64.7 64.7C-76.4 54 -100.8 55.4 -112.4 46.6C-124 37.8 -122.9 18.9 -121.7 0L0 0Z" fill="#090943"></path></g><g transform="translate(0, 600)"><path d="M0 -486.7C48.5 -431.2 97 -375.6 142.7 -344.6C188.4 -313.6 231.3 -307.1 287.8 -287.8C344.3 -268.5 414.3 -236.4 449.7 -186.3C485.1 -136.2 485.9 -68.1 486.7 0L0 0Z" fill="#1c63a3"></path><path d="M0 -365.1C36.4 -323.4 72.8 -281.7 107.1 -258.5C141.3 -235.2 173.5 -230.3 215.8 -215.8C258.2 -201.4 310.7 -177.3 337.3 -139.7C363.8 -102.1 364.5 -51.1 365.1 0L0 0Z" fill="#133e7d"></path><path d="M0 -243.4C24.3 -215.6 48.5 -187.8 71.4 -172.3C94.2 -156.8 115.7 -153.5 143.9 -143.9C172.1 -134.2 207.1 -118.2 224.8 -93.1C242.6 -68.1 243 -34 243.4 0L0 0Z" fill="#0c1b56"></path><path d="M0 -121.7C12.1 -107.8 24.3 -93.9 35.7 -86.2C47.1 -78.4 57.8 -76.8 71.9 -71.9C86.1 -67.1 103.6 -59.1 112.4 -46.6C121.3 -34 121.5 -17 121.7 0L0 0Z" fill="#090943"></path></g></svg>