<svg xmlns="http://www.w3.org/2000/svg" xmlns:xlink="http://www.w3.org/1999/xlink" id="visual" version="1.1" viewBox="0 411.65 900 189.35"><path d="M0 430L21.5 431.5C43 433 86 436 128.8 438.7C171.7 441.3 214.3 443.7 257.2 443.8C300 444 343 442 385.8 433.5C428.7 425 471.3 410 514.2 411.8C557 413.7 600 432.3 642.8 436.8C685.7 441.3 728.3 431.7 771.2 433.3C814 435 857 448 878.5 454.5L900 461L900 601L878.5 601C857 601 814 601 771.2 601C728.3 601 685.7 601 642.8 601C600 601 557 601 514.2 601C471.3 601 428.7 601 385.8 601C343 601 300 601 257.2 601C214.3 601 171.7 601 128.8 601C86 601 43 601 21.5 601L0 601Z" fill="#001122"/><path d="M0 482L21.5 483.3C43 484.7 86 487.3 128.8 484.2C171.7 481 214.3 472 257.2 472C300 472 343 481 385.8 483.5C428.7 486 471.3 482 514.2 476.3C557 470.7 600 463.3 642.8 464C685.7 464.7 728.3 473.3 771.2 478C814 482.7 857 483.3 878.5 483.7L900 484L900 601L878.5 601C857 601 814 601 771.2 601C728.3 601 685.7 601 642.8 601C600 601 557 601 514.2 601C471.3 601 428.7 601 385.8 601C343 601 300 601 257.2 601C214.3 601 171.7 601 128.8 601C86 601 43 601 21.5 601L0 601Z" fill="#011d38"/><path d="M0 488L21.5 495.5C43 503 86 518 128.8 520.5C171.7 523 214.3 513 257.2 513.5C300 514 343 525 385.8 524.5C428.7 524 471.3 512 514.2 509.7C557 507.3 600 514.7 642.8 513.7C685.7 512.7 728.3 503.3 771.2 505.7C814 508 857 522 878.5 529L900 536L900 601L878.5 601C857 601 814 601 771.2 601C728.3 601 685.7 601 642.8 601C600 601 557 601 514.2 601C471.3 601 428.7 601 385.8 601C343 601 300 601 257.2 601C214.3 601 171.7 601 128.8 601C86 601 43 601 21.5 601L0 601Z" fill="#00294f"/><path d="M0 534L21.5 540.7C43 547.3 86 560.7 128.8 566.8C171.7 573 214.3 572 257.2 564.3C300 556.7 343 542.3 385.8 542.3C428.7 542.3 471.3 556.7 514.2 560.8C557 565 600 559 642.8 552.2C685.7 545.3 728.3 537.7 771.2 533.7C814 529.7 857 529.3 878.5 529.2L900 529L900 601L878.5 601C857 601 814 601 771.2 601C728.3 601 685.7 601 642.8 601C600 601 557 601 514.2 601C471.3 601 428.7 601 385.8 601C343 601 300 601 257.2 601C214.3 601 171.7 601 128.8 601C86 601 43 601 21.5 601L0 601Z" fill="#023467"/></svg>