<svg id="visual" viewBox="0 0 900 600" width="900" height="600" xmlns="http://www.w3.org/2000/svg" xmlns:xlink="http://www.w3.org/1999/xlink" version="1.1"><path d="M827 600L821 580C815 560 803 520 795.5 480C788 440 785 400 785 360C785 320 788 280 789.5 240C791 200 791 160 794 120C797 80 803 40 806 20L809 0L900 0L900 20C900 40 900 80 900 120C900 160 900 200 900 240C900 280 900 320 900 360C900 400 900 440 900 480C900 520 900 560 900 580L900 600Z" fill="#001220"></path><path d="M647 600L648.5 580C650 560 653 520 648.5 480C644 440 632 400 626 360C620 320 620 280 629 240C638 200 656 160 668 120C680 80 686 40 689 20L692 0L810 0L807 20C804 40 798 80 795 120C792 160 792 200 790.5 240C789 280 786 320 786 360C786 400 789 440 796.5 480C804 520 816 560 822 580L828 600Z" fill="#003a6a"></path><path d="M503 600L498.5 580C494 560 485 520 471.5 480C458 440 440 400 417.5 360C395 320 368 280 383 240C398 200 455 160 473 120C491 80 470 40 459.5 20L449 0L693 0L690 20C687 40 681 80 669 120C657 160 639 200 630 240C621 280 621 320 627 360C633 400 645 440 649.5 480C654 520 651 560 649.5 580L648 600Z" fill="#0863be"></path><path d="M215 600L215 580C215 560 215 520 216.5 480C218 440 221 400 212 360C203 320 182 280 176 240C170 200 179 160 186.5 120C194 80 200 40 203 20L206 0L450 0L460.5 20C471 40 492 80 474 120C456 160 399 200 384 240C369 280 396 320 418.5 360C441 400 459 440 472.5 480C486 520 495 560 499.5 580L504 600Z" fill="#0863be"></path><path d="M134 600L132.5 580C131 560 128 520 126.5 480C125 440 125 400 117.5 360C110 320 95 280 90.5 240C86 200 92 160 96.5 120C101 80 104 40 105.5 20L107 0L207 0L204 20C201 40 195 80 187.5 120C180 160 171 200 177 240C183 280 204 320 213 360C222 400 219 440 217.5 480C216 520 216 560 216 580L216 600Z" fill="#003a6a"></path><path d="M0 600L0 580C0 560 0 520 0 480C0 440 0 400 0 360C0 320 0 280 0 240C0 200 0 160 0 120C0 80 0 40 0 20L0 0L108 0L106.5 20C105 40 102 80 97.5 120C93 160 87 200 91.5 240C96 280 111 320 118.5 360C126 400 126 440 127.5 480C129 520 132 560 133.5 580L135 600Z" fill="#001220"></path></svg>