<svg id="visual" viewBox="0 0 900 675" width="900" height="675" xmlns="http://www.w3.org/2000/svg" xmlns:xlink="http://www.w3.org/1999/xlink" version="1.1"><g transform="translate(436.38038284979905 318.998711643941)"><path d="M234.4 -239.1C317.5 -209.6 408 -148.7 432.3 -67.8C456.5 13.1 414.4 114 353.5 189.6C292.6 265.2 212.8 315.4 136.3 319.2C59.8 323 -13.4 280.4 -75.4 242.5C-137.4 204.6 -188.2 171.3 -256 117.1C-323.8 63 -408.6 -12 -411.9 -86.5C-415.3 -160.9 -337.2 -234.8 -254.9 -264.5C-172.7 -294.1 -86.3 -279.6 -5.4 -273.2C75.6 -266.8 151.3 -268.6 234.4 -239.1" fill="#3d24c7"></path></g></svg>