<svg id="visual" viewBox="0 0 900 600" width="900" height="600" xmlns="http://www.w3.org/2000/svg" xmlns:xlink="http://www.w3.org/1999/xlink" version="1.1"><rect x="0" y="0" width="900" height="600" fill="#011d33"></rect><defs><linearGradient id="grad1_0" x1="33.3%" y1="100%" x2="100%" y2="0%"><stop offset="20%" stop-color="#011d33" stop-opacity="1"></stop><stop offset="80%" stop-color="#011d33" stop-opacity="1"></stop></linearGradient></defs><defs><linearGradient id="grad2_0" x1="0%" y1="100%" x2="66.7%" y2="0%"><stop offset="20%" stop-color="#011d33" stop-opacity="1"></stop><stop offset="80%" stop-color="#011d33" stop-opacity="1"></stop></linearGradient></defs><g transform="translate(900, 600)"><path d="M-243.4 0C-229.7 -38.1 -216 -76.2 -197.5 -114C-178.9 -151.8 -155.4 -189.3 -121.7 -210.8C-88 -232.3 -44 -237.8 0 -243.4L0 0Z" fill="#0863be"></path></g><g transform="translate(0, 0)"><path d="M243.4 0C232 39.4 220.6 78.9 201.8 116.5C182.9 154.1 156.6 189.9 121.7 210.8C86.8 231.6 43.4 237.5 0 243.4L0 0Z" fill="#0863be"></path></g></svg>