<svg id="visual" viewBox="0 0 900 600" width="900" height="600" xmlns="http://www.w3.org/2000/svg" xmlns:xlink="http://www.w3.org/1999/xlink" version="1.1"><path d="M0 429L21.5 418.5C43 408 86 387 128.8 379.2C171.7 371.3 214.3 376.7 257.2 390.3C300 404 343 426 385.8 434.8C428.7 443.7 471.3 439.3 514.2 436.7C557 434 600 433 642.8 425C685.7 417 728.3 402 771.2 404.2C814 406.3 857 425.7 878.5 435.3L900 445L900 601L878.5 601C857 601 814 601 771.2 601C728.3 601 685.7 601 642.8 601C600 601 557 601 514.2 601C471.3 601 428.7 601 385.8 601C343 601 300 601 257.2 601C214.3 601 171.7 601 128.8 601C86 601 43 601 21.5 601L0 601Z" fill="#698cfa"></path><path  d="M0 464L21.5 456.2C43 448.3 86 432.7 128.8 430C171.7 427.3 214.3 437.7 257.2 442.8C300 448 343 448 385.8 446.3C428.7 444.7 471.3 441.3 514.2 444C557 446.7 600 455.3 642.8 450.8C685.7 446.3 728.3 428.7 771.2 426.8C814 425 857 439 878.5 446L900 453L900 601L878.5 601C857 601 814 601 771.2 601C728.3 601 685.7 601 642.8 601C600 601 557 601 514.2 601C471.3 601 428.7 601 385.8 601C343 601 300 601 257.2 601C214.3 601 171.7 601 128.8 601C86 601 43 601 21.5 601L0 601Z" fill="#5875f0"></path><path d="M0 472L21.5 474.7C43 477.3 86 482.7 128.8 477C171.7 471.3 214.3 454.7 257.2 456.3C300 458 343 478 385.8 480C428.7 482 471.3 466 514.2 461C557 456 600 462 642.8 469.7C685.7 477.3 728.3 486.7 771.2 481.8C814 477 857 458 878.5 448.5L900 439L900 601L878.5 601C857 601 814 601 771.2 601C728.3 601 685.7 601 642.8 601C600 601 557 601 514.2 601C471.3 601 428.7 601 385.8 601C343 601 300 601 257.2 601C214.3 601 171.7 601 128.8 601C86 601 43 601 21.5 601L0 601Z" fill="#4b5de4"></path><path d="M0 517L21.5 512.2C43 507.3 86 497.7 128.8 497.5C171.7 497.3 214.3 506.7 257.2 513.5C300 520.3 343 524.7 385.8 523.8C428.7 523 471.3 517 514.2 510.2C557 503.3 600 495.7 642.8 500.3C685.7 505 728.3 522 771.2 529.8C814 537.7 857 536.3 878.5 535.7L900 535L900 601L878.5 601C857 601 814 601 771.2 601C728.3 601 685.7 601 642.8 601C600 601 557 601 514.2 601C471.3 601 428.7 601 385.8 601C343 601 300 601 257.2 601C214.3 601 171.7 601 128.8 601C86 601 43 601 21.5 601L0 601Z" fill="#4243d6"></path><path d="M0 573L21.5 571.2C43 569.3 86 565.7 128.8 560.8C171.7 556 214.3 550 257.2 550.5C300 551 343 558 385.8 559C428.7 560 471.3 555 514.2 549C557 543 600 536 642.8 537.3C685.7 538.7 728.3 548.3 771.2 549.8C814 551.3 857 544.7 878.5 541.3L900 538L900 601L878.5 601C857 601 814 601 771.2 601C728.3 601 685.7 601 642.8 601C600 601 557 601 514.2 601C471.3 601 428.7 601 385.8 601C343 601 300 601 257.2 601C214.3 601 171.7 601 128.8 601C86 601 43 601 21.5 601L0 601Z" fill="#3d24c7"></path></svg>