<svg id="visual" viewBox="0 0 1100 500" width="1100" height="500" xmlns="http://www.w3.org/2000/svg" xmlns:xlink="http://www.w3.org/1999/xlink" version="1.1"><path d="M0 471L26.2 474.5C52.3 478 104.7 485 157 480.5C209.3 476 261.7 460 314 445.3C366.3 430.7 418.7 417.3 471.2 411C523.7 404.7 576.3 405.3 628.8 421C681.3 436.7 733.7 467.3 786 478.3C838.3 489.3 890.7 480.7 943 466C995.3 451.3 1047.7 430.7 1073.8 420.3L1100 410L1100 501L1073.8 501C1047.7 501 995.3 501 943 501C890.7 501 838.3 501 786 501C733.7 501 681.3 501 628.8 501C576.3 501 523.7 501 471.2 501C418.7 501 366.3 501 314 501C261.7 501 209.3 501 157 501C104.7 501 52.3 501 26.2 501L0 501Z" fill="#00224d" stroke-linecap="round" stroke-linejoin="miter"></path></svg>