<svg id="visual" viewBox="0 0 900 450" width="900" height="450" xmlns="http://www.w3.org/2000/svg" xmlns:xlink="http://www.w3.org/1999/xlink" version="1.1"><path d="M0 365L18.8 371.3C37.7 377.7 75.3 390.3 112.8 397C150.3 403.7 187.7 404.3 225.2 398.8C262.7 393.3 300.3 381.7 337.8 375.2C375.3 368.7 412.7 367.3 450.2 372.8C487.7 378.3 525.3 390.7 562.8 393.5C600.3 396.3 637.7 389.7 675.2 385.5C712.7 381.3 750.3 379.7 787.8 381.5C825.3 383.3 862.7 388.7 881.3 391.3L900 394L900 451L881.3 451C862.7 451 825.3 451 787.8 451C750.3 451 712.7 451 675.2 451C637.7 451 600.3 451 562.8 451C525.3 451 487.7 451 450.2 451C412.7 451 375.3 451 337.8 451C300.3 451 262.7 451 225.2 451C187.7 451 150.3 451 112.8 451C75.3 451 37.7 451 18.8 451L0 451Z" fill="#00224d"></path><path d="M0 387L18.8 392.2C37.7 397.3 75.3 407.7 112.8 408.5C150.3 409.3 187.7 400.7 225.2 395C262.7 389.3 300.3 386.7 337.8 390.7C375.3 394.7 412.7 405.3 450.2 408.7C487.7 412 525.3 408 562.8 407.2C600.3 406.3 637.7 408.7 675.2 406.3C712.7 404 750.3 397 787.8 393.8C825.3 390.7 862.7 391.3 881.3 391.7L900 392L900 451L881.3 451C862.7 451 825.3 451 787.8 451C750.3 451 712.7 451 675.2 451C637.7 451 600.3 451 562.8 451C525.3 451 487.7 451 450.2 451C412.7 451 375.3 451 337.8 451C300.3 451 262.7 451 225.2 451C187.7 451 150.3 451 112.8 451C75.3 451 37.7 451 18.8 451L0 451Z" fill="#00345d"></path><path d="M0 409L18.8 413.8C37.7 418.7 75.3 428.3 112.8 429.3C150.3 430.3 187.7 422.7 225.2 420C262.7 417.3 300.3 419.7 337.8 418.8C375.3 418 412.7 414 450.2 416.8C487.7 419.7 525.3 429.3 562.8 429.5C600.3 429.7 637.7 420.3 675.2 416.5C712.7 412.7 750.3 414.3 787.8 417.7C825.3 421 862.7 426 881.3 428.5L900 431L900 451L881.3 451C862.7 451 825.3 451 787.8 451C750.3 451 712.7 451 675.2 451C637.7 451 600.3 451 562.8 451C525.3 451 487.7 451 450.2 451C412.7 451 375.3 451 337.8 451C300.3 451 262.7 451 225.2 451C187.7 451 150.3 451 112.8 451C75.3 451 37.7 451 18.8 451L0 451Z" fill="#00466c"></path></svg>