<svg xmlns="http://www.w3.org/2000/svg" version="1.1" xmlns:xlink="http://www.w3.org/1999/xlink" xmlns:svgjs="http://svgjs.dev/svgjs" viewBox="0 0 800 800"><defs><linearGradient gradientTransform="rotate(270)" x1="50%" y1="0%" x2="50%" y2="100%" id="sssquiggly-grad"><stop stop-color="#0863be" stop-opacity="1" offset="0%"></stop><stop stop-color="hsla(331, 0%, 100%, 1)" stop-opacity="1" offset="100%"></stop></linearGradient></defs><g stroke-width="7" stroke="url(#sssquiggly-grad)" fill="none" stroke-linecap="round" transform="matrix(1,0,0,1,-5,-312.4680824279785)"><path d="M10,10C21.805555555555557,12.083333333333334,40.97222222222223,25.208333333333336,66.66666666666667,20C92.36111111111111,14.791666666666666,105.55555555555557,-14.583333333333334,133.33333333333334,-15C161.11111111111111,-15.416666666666666,172.22222222222223,19.666666666666668,200,18C227.77777777777777,16.333333333333332,238.8888888888889,-25.291666666666668,266.6666666666667,-23C294.44444444444446,-20.708333333333332,305.5555555555556,27.541666666666668,333.33333333333337,29C361.11111111111114,30.458333333333332,372.22222222222223,-18.708333333333332,400,-16C427.77777777777777,-13.291666666666668,438.8888888888889,40.541666666666664,466.6666666666667,42C494.44444444444446,43.458333333333336,505.5555555555556,-10.25,533.3333333333334,-9C561.1111111111111,-7.75,572.2222222222222,49.458333333333336,600,48C627.7777777777778,46.541666666666664,638.8888888888889,-14.541666666666666,666.6666666666667,-16C694.4444444444446,-17.458333333333332,705.5555555555557,37.666666666666664,733.3333333333334,41C761.1111111111111,44.333333333333336,786.1111111111111,8.541666666666666,800,0"></path><path d="M10,10C21.805555555555557,12.083333333333334,40.97222222222223,25.208333333333336,66.66666666666667,20C92.36111111111111,14.791666666666666,105.55555555555557,-14.583333333333334,133.33333333333334,-15C161.11111111111111,-15.416666666666666,172.22222222222223,19.666666666666668,200,18C227.77777777777777,16.333333333333332,238.8888888888889,-25.291666666666668,266.6666666666667,-23C294.44444444444446,-20.708333333333332,305.5555555555556,27.541666666666668,333.33333333333337,29C361.11111111111114,30.458333333333332,372.22222222222223,-18.708333333333332,400,-16C427.77777777777777,-13.291666666666668,438.8888888888889,40.541666666666664,466.6666666666667,42C494.44444444444446,43.458333333333336,505.5555555555556,-10.25,533.3333333333334,-9C561.1111111111111,-7.75,572.2222222222222,49.458333333333336,600,48C627.7777777777778,46.541666666666664,638.8888888888889,-14.541666666666666,666.6666666666667,-16C694.4444444444446,-17.458333333333332,705.5555555555557,37.666666666666664,733.3333333333334,41C761.1111111111111,44.333333333333336,786.1111111111111,8.541666666666666,800,0" transform="matrix(1,0,0,1,0,1400)"></path><path d="M10,10C21.805555555555557,12.083333333333334,40.97222222222223,25.208333333333336,66.66666666666667,20C92.36111111111111,14.791666666666666,105.55555555555557,-14.583333333333334,133.33333333333334,-15C161.11111111111111,-15.416666666666666,172.22222222222223,19.666666666666668,200,18C227.77777777777777,16.333333333333332,238.8888888888889,-25.291666666666668,266.6666666666667,-23C294.44444444444446,-20.708333333333332,305.5555555555556,27.541666666666668,333.33333333333337,29C361.11111111111114,30.458333333333332,372.22222222222223,-18.708333333333332,400,-16C427.77777777777777,-13.291666666666668,438.8888888888889,40.541666666666664,466.6666666666667,42C494.44444444444446,43.458333333333336,505.5555555555556,-10.25,533.3333333333334,-9C561.1111111111111,-7.75,572.2222222222222,49.458333333333336,600,48C627.7777777777778,46.541666666666664,638.8888888888889,-14.541666666666666,666.6666666666667,-16C694.4444444444446,-17.458333333333332,705.5555555555557,37.666666666666664,733.3333333333334,41C761.1111111111111,44.333333333333336,786.1111111111111,8.541666666666666,800,0" transform="matrix(1,0,0,1,0,1344)"></path><path d="M10,10C21.805555555555557,12.083333333333334,40.97222222222223,25.208333333333336,66.66666666666667,20C92.36111111111111,14.791666666666666,105.55555555555557,-14.583333333333334,133.33333333333334,-15C161.11111111111111,-15.416666666666666,172.22222222222223,19.666666666666668,200,18C227.77777777777777,16.333333333333332,238.8888888888889,-25.291666666666668,266.6666666666667,-23C294.44444444444446,-20.708333333333332,305.5555555555556,27.541666666666668,333.33333333333337,29C361.11111111111114,30.458333333333332,372.22222222222223,-18.708333333333332,400,-16C427.77777777777777,-13.291666666666668,438.8888888888889,40.541666666666664,466.6666666666667,42C494.44444444444446,43.458333333333336,505.5555555555556,-10.25,533.3333333333334,-9C561.1111111111111,-7.75,572.2222222222222,49.458333333333336,600,48C627.7777777777778,46.541666666666664,638.8888888888889,-14.541666666666666,666.6666666666667,-16C694.4444444444446,-17.458333333333332,705.5555555555557,37.666666666666664,733.3333333333334,41C761.1111111111111,44.333333333333336,786.1111111111111,8.541666666666666,800,0" transform="matrix(1,0,0,1,0,1288)"></path><path d="M10,10C21.805555555555557,12.083333333333334,40.97222222222223,25.208333333333336,66.66666666666667,20C92.36111111111111,14.791666666666666,105.55555555555557,-14.583333333333334,133.33333333333334,-15C161.11111111111111,-15.416666666666666,172.22222222222223,19.666666666666668,200,18C227.77777777777777,16.333333333333332,238.8888888888889,-25.291666666666668,266.6666666666667,-23C294.44444444444446,-20.708333333333332,305.5555555555556,27.541666666666668,333.33333333333337,29C361.11111111111114,30.458333333333332,372.22222222222223,-18.708333333333332,400,-16C427.77777777777777,-13.291666666666668,438.8888888888889,40.541666666666664,466.6666666666667,42C494.44444444444446,43.458333333333336,505.5555555555556,-10.25,533.3333333333334,-9C561.1111111111111,-7.75,572.2222222222222,49.458333333333336,600,48C627.7777777777778,46.541666666666664,638.8888888888889,-14.541666666666666,666.6666666666667,-16C694.4444444444446,-17.458333333333332,705.5555555555557,37.666666666666664,733.3333333333334,41C761.1111111111111,44.333333333333336,786.1111111111111,8.541666666666666,800,0" transform="matrix(1,0,0,1,0,1232)"></path><path d="M10,10C21.805555555555557,12.083333333333334,40.97222222222223,25.208333333333336,66.66666666666667,20C92.36111111111111,14.791666666666666,105.55555555555557,-14.583333333333334,133.33333333333334,-15C161.11111111111111,-15.416666666666666,172.22222222222223,19.666666666666668,200,18C227.77777777777777,16.333333333333332,238.8888888888889,-25.291666666666668,266.6666666666667,-23C294.44444444444446,-20.708333333333332,305.5555555555556,27.541666666666668,333.33333333333337,29C361.11111111111114,30.458333333333332,372.22222222222223,-18.708333333333332,400,-16C427.77777777777777,-13.291666666666668,438.8888888888889,40.541666666666664,466.6666666666667,42C494.44444444444446,43.458333333333336,505.5555555555556,-10.25,533.3333333333334,-9C561.1111111111111,-7.75,572.2222222222222,49.458333333333336,600,48C627.7777777777778,46.541666666666664,638.8888888888889,-14.541666666666666,666.6666666666667,-16C694.4444444444446,-17.458333333333332,705.5555555555557,37.666666666666664,733.3333333333334,41C761.1111111111111,44.333333333333336,786.1111111111111,8.541666666666666,800,0" transform="matrix(1,0,0,1,0,1176)"></path><path d="M10,10C21.805555555555557,12.083333333333334,40.97222222222223,25.208333333333336,66.66666666666667,20C92.36111111111111,14.791666666666666,105.55555555555557,-14.583333333333334,133.33333333333334,-15C161.11111111111111,-15.416666666666666,172.22222222222223,19.666666666666668,200,18C227.77777777777777,16.333333333333332,238.8888888888889,-25.291666666666668,266.6666666666667,-23C294.44444444444446,-20.708333333333332,305.5555555555556,27.541666666666668,333.33333333333337,29C361.11111111111114,30.458333333333332,372.22222222222223,-18.708333333333332,400,-16C427.77777777777777,-13.291666666666668,438.8888888888889,40.541666666666664,466.6666666666667,42C494.44444444444446,43.458333333333336,505.5555555555556,-10.25,533.3333333333334,-9C561.1111111111111,-7.75,572.2222222222222,49.458333333333336,600,48C627.7777777777778,46.541666666666664,638.8888888888889,-14.541666666666666,666.6666666666667,-16C694.4444444444446,-17.458333333333332,705.5555555555557,37.666666666666664,733.3333333333334,41C761.1111111111111,44.333333333333336,786.1111111111111,8.541666666666666,800,0" transform="matrix(1,0,0,1,0,1120)"></path><path d="M10,10C21.805555555555557,12.083333333333334,40.97222222222223,25.208333333333336,66.66666666666667,20C92.36111111111111,14.791666666666666,105.55555555555557,-14.583333333333334,133.33333333333334,-15C161.11111111111111,-15.416666666666666,172.22222222222223,19.666666666666668,200,18C227.77777777777777,16.333333333333332,238.8888888888889,-25.291666666666668,266.6666666666667,-23C294.44444444444446,-20.708333333333332,305.5555555555556,27.541666666666668,333.33333333333337,29C361.11111111111114,30.458333333333332,372.22222222222223,-18.708333333333332,400,-16C427.77777777777777,-13.291666666666668,438.8888888888889,40.541666666666664,466.6666666666667,42C494.44444444444446,43.458333333333336,505.5555555555556,-10.25,533.3333333333334,-9C561.1111111111111,-7.75,572.2222222222222,49.458333333333336,600,48C627.7777777777778,46.541666666666664,638.8888888888889,-14.541666666666666,666.6666666666667,-16C694.4444444444446,-17.458333333333332,705.5555555555557,37.666666666666664,733.3333333333334,41C761.1111111111111,44.333333333333336,786.1111111111111,8.541666666666666,800,0" transform="matrix(1,0,0,1,0,1064)"></path><path d="M10,10C21.805555555555557,12.083333333333334,40.97222222222223,25.208333333333336,66.66666666666667,20C92.36111111111111,14.791666666666666,105.55555555555557,-14.583333333333334,133.33333333333334,-15C161.11111111111111,-15.416666666666666,172.22222222222223,19.666666666666668,200,18C227.77777777777777,16.333333333333332,238.8888888888889,-25.291666666666668,266.6666666666667,-23C294.44444444444446,-20.708333333333332,305.5555555555556,27.541666666666668,333.33333333333337,29C361.11111111111114,30.458333333333332,372.22222222222223,-18.708333333333332,400,-16C427.77777777777777,-13.291666666666668,438.8888888888889,40.541666666666664,466.6666666666667,42C494.44444444444446,43.458333333333336,505.5555555555556,-10.25,533.3333333333334,-9C561.1111111111111,-7.75,572.2222222222222,49.458333333333336,600,48C627.7777777777778,46.541666666666664,638.8888888888889,-14.541666666666666,666.6666666666667,-16C694.4444444444446,-17.458333333333332,705.5555555555557,37.666666666666664,733.3333333333334,41C761.1111111111111,44.333333333333336,786.1111111111111,8.541666666666666,800,0" transform="matrix(1,0,0,1,0,1008)"></path><path d="M10,10C21.805555555555557,12.083333333333334,40.97222222222223,25.208333333333336,66.66666666666667,20C92.36111111111111,14.791666666666666,105.55555555555557,-14.583333333333334,133.33333333333334,-15C161.11111111111111,-15.416666666666666,172.22222222222223,19.666666666666668,200,18C227.77777777777777,16.333333333333332,238.8888888888889,-25.291666666666668,266.6666666666667,-23C294.44444444444446,-20.708333333333332,305.5555555555556,27.541666666666668,333.33333333333337,29C361.11111111111114,30.458333333333332,372.22222222222223,-18.708333333333332,400,-16C427.77777777777777,-13.291666666666668,438.8888888888889,40.541666666666664,466.6666666666667,42C494.44444444444446,43.458333333333336,505.5555555555556,-10.25,533.3333333333334,-9C561.1111111111111,-7.75,572.2222222222222,49.458333333333336,600,48C627.7777777777778,46.541666666666664,638.8888888888889,-14.541666666666666,666.6666666666667,-16C694.4444444444446,-17.458333333333332,705.5555555555557,37.666666666666664,733.3333333333334,41C761.1111111111111,44.333333333333336,786.1111111111111,8.541666666666666,800,0" transform="matrix(1,0,0,1,0,952)"></path><path d="M10,10C21.805555555555557,12.083333333333334,40.97222222222223,25.208333333333336,66.66666666666667,20C92.36111111111111,14.791666666666666,105.55555555555557,-14.583333333333334,133.33333333333334,-15C161.11111111111111,-15.416666666666666,172.22222222222223,19.666666666666668,200,18C227.77777777777777,16.333333333333332,238.8888888888889,-25.291666666666668,266.6666666666667,-23C294.44444444444446,-20.708333333333332,305.5555555555556,27.541666666666668,333.33333333333337,29C361.11111111111114,30.458333333333332,372.22222222222223,-18.708333333333332,400,-16C427.77777777777777,-13.291666666666668,438.8888888888889,40.541666666666664,466.6666666666667,42C494.44444444444446,43.458333333333336,505.5555555555556,-10.25,533.3333333333334,-9C561.1111111111111,-7.75,572.2222222222222,49.458333333333336,600,48C627.7777777777778,46.541666666666664,638.8888888888889,-14.541666666666666,666.6666666666667,-16C694.4444444444446,-17.458333333333332,705.5555555555557,37.666666666666664,733.3333333333334,41C761.1111111111111,44.333333333333336,786.1111111111111,8.541666666666666,800,0" transform="matrix(1,0,0,1,0,896)"></path><path d="M10,10C21.805555555555557,12.083333333333334,40.97222222222223,25.208333333333336,66.66666666666667,20C92.36111111111111,14.791666666666666,105.55555555555557,-14.583333333333334,133.33333333333334,-15C161.11111111111111,-15.416666666666666,172.22222222222223,19.666666666666668,200,18C227.77777777777777,16.333333333333332,238.8888888888889,-25.291666666666668,266.6666666666667,-23C294.44444444444446,-20.708333333333332,305.5555555555556,27.541666666666668,333.33333333333337,29C361.11111111111114,30.458333333333332,372.22222222222223,-18.708333333333332,400,-16C427.77777777777777,-13.291666666666668,438.8888888888889,40.541666666666664,466.6666666666667,42C494.44444444444446,43.458333333333336,505.5555555555556,-10.25,533.3333333333334,-9C561.1111111111111,-7.75,572.2222222222222,49.458333333333336,600,48C627.7777777777778,46.541666666666664,638.8888888888889,-14.541666666666666,666.6666666666667,-16C694.4444444444446,-17.458333333333332,705.5555555555557,37.666666666666664,733.3333333333334,41C761.1111111111111,44.333333333333336,786.1111111111111,8.541666666666666,800,0" transform="matrix(1,0,0,1,0,840)"></path><path d="M10,10C21.805555555555557,12.083333333333334,40.97222222222223,25.208333333333336,66.66666666666667,20C92.36111111111111,14.791666666666666,105.55555555555557,-14.583333333333334,133.33333333333334,-15C161.11111111111111,-15.416666666666666,172.22222222222223,19.666666666666668,200,18C227.77777777777777,16.333333333333332,238.8888888888889,-25.291666666666668,266.6666666666667,-23C294.44444444444446,-20.708333333333332,305.5555555555556,27.541666666666668,333.33333333333337,29C361.11111111111114,30.458333333333332,372.22222222222223,-18.708333333333332,400,-16C427.77777777777777,-13.291666666666668,438.8888888888889,40.541666666666664,466.6666666666667,42C494.44444444444446,43.458333333333336,505.5555555555556,-10.25,533.3333333333334,-9C561.1111111111111,-7.75,572.2222222222222,49.458333333333336,600,48C627.7777777777778,46.541666666666664,638.8888888888889,-14.541666666666666,666.6666666666667,-16C694.4444444444446,-17.458333333333332,705.5555555555557,37.666666666666664,733.3333333333334,41C761.1111111111111,44.333333333333336,786.1111111111111,8.541666666666666,800,0" transform="matrix(1,0,0,1,0,784)"></path><path d="M10,10C21.805555555555557,12.083333333333334,40.97222222222223,25.208333333333336,66.66666666666667,20C92.36111111111111,14.791666666666666,105.55555555555557,-14.583333333333334,133.33333333333334,-15C161.11111111111111,-15.416666666666666,172.22222222222223,19.666666666666668,200,18C227.77777777777777,16.333333333333332,238.8888888888889,-25.291666666666668,266.6666666666667,-23C294.44444444444446,-20.708333333333332,305.5555555555556,27.541666666666668,333.33333333333337,29C361.11111111111114,30.458333333333332,372.22222222222223,-18.708333333333332,400,-16C427.77777777777777,-13.291666666666668,438.8888888888889,40.541666666666664,466.6666666666667,42C494.44444444444446,43.458333333333336,505.5555555555556,-10.25,533.3333333333334,-9C561.1111111111111,-7.75,572.2222222222222,49.458333333333336,600,48C627.7777777777778,46.541666666666664,638.8888888888889,-14.541666666666666,666.6666666666667,-16C694.4444444444446,-17.458333333333332,705.5555555555557,37.666666666666664,733.3333333333334,41C761.1111111111111,44.333333333333336,786.1111111111111,8.541666666666666,800,0" transform="matrix(1,0,0,1,0,728)"></path><path d="M10,10C21.805555555555557,12.083333333333334,40.97222222222223,25.208333333333336,66.66666666666667,20C92.36111111111111,14.791666666666666,105.55555555555557,-14.583333333333334,133.33333333333334,-15C161.11111111111111,-15.416666666666666,172.22222222222223,19.666666666666668,200,18C227.77777777777777,16.333333333333332,238.8888888888889,-25.291666666666668,266.6666666666667,-23C294.44444444444446,-20.708333333333332,305.5555555555556,27.541666666666668,333.33333333333337,29C361.11111111111114,30.458333333333332,372.22222222222223,-18.708333333333332,400,-16C427.77777777777777,-13.291666666666668,438.8888888888889,40.541666666666664,466.6666666666667,42C494.44444444444446,43.458333333333336,505.5555555555556,-10.25,533.3333333333334,-9C561.1111111111111,-7.75,572.2222222222222,49.458333333333336,600,48C627.7777777777778,46.541666666666664,638.8888888888889,-14.541666666666666,666.6666666666667,-16C694.4444444444446,-17.458333333333332,705.5555555555557,37.666666666666664,733.3333333333334,41C761.1111111111111,44.333333333333336,786.1111111111111,8.541666666666666,800,0" transform="matrix(1,0,0,1,0,672)"></path><path d="M10,10C21.805555555555557,12.083333333333334,40.97222222222223,25.208333333333336,66.66666666666667,20C92.36111111111111,14.791666666666666,105.55555555555557,-14.583333333333334,133.33333333333334,-15C161.11111111111111,-15.416666666666666,172.22222222222223,19.666666666666668,200,18C227.77777777777777,16.333333333333332,238.8888888888889,-25.291666666666668,266.6666666666667,-23C294.44444444444446,-20.708333333333332,305.5555555555556,27.541666666666668,333.33333333333337,29C361.11111111111114,30.458333333333332,372.22222222222223,-18.708333333333332,400,-16C427.77777777777777,-13.291666666666668,438.8888888888889,40.541666666666664,466.6666666666667,42C494.44444444444446,43.458333333333336,505.5555555555556,-10.25,533.3333333333334,-9C561.1111111111111,-7.75,572.2222222222222,49.458333333333336,600,48C627.7777777777778,46.541666666666664,638.8888888888889,-14.541666666666666,666.6666666666667,-16C694.4444444444446,-17.458333333333332,705.5555555555557,37.666666666666664,733.3333333333334,41C761.1111111111111,44.333333333333336,786.1111111111111,8.541666666666666,800,0" transform="matrix(1,0,0,1,0,616)"></path><path d="M10,10C21.805555555555557,12.083333333333334,40.97222222222223,25.208333333333336,66.66666666666667,20C92.36111111111111,14.791666666666666,105.55555555555557,-14.583333333333334,133.33333333333334,-15C161.11111111111111,-15.416666666666666,172.22222222222223,19.666666666666668,200,18C227.77777777777777,16.333333333333332,238.8888888888889,-25.291666666666668,266.6666666666667,-23C294.44444444444446,-20.708333333333332,305.5555555555556,27.541666666666668,333.33333333333337,29C361.11111111111114,30.458333333333332,372.22222222222223,-18.708333333333332,400,-16C427.77777777777777,-13.291666666666668,438.8888888888889,40.541666666666664,466.6666666666667,42C494.44444444444446,43.458333333333336,505.5555555555556,-10.25,533.3333333333334,-9C561.1111111111111,-7.75,572.2222222222222,49.458333333333336,600,48C627.7777777777778,46.541666666666664,638.8888888888889,-14.541666666666666,666.6666666666667,-16C694.4444444444446,-17.458333333333332,705.5555555555557,37.666666666666664,733.3333333333334,41C761.1111111111111,44.333333333333336,786.1111111111111,8.541666666666666,800,0" transform="matrix(1,0,0,1,0,560)"></path><path d="M10,10C21.805555555555557,12.083333333333334,40.97222222222223,25.208333333333336,66.66666666666667,20C92.36111111111111,14.791666666666666,105.55555555555557,-14.583333333333334,133.33333333333334,-15C161.11111111111111,-15.416666666666666,172.22222222222223,19.666666666666668,200,18C227.77777777777777,16.333333333333332,238.8888888888889,-25.291666666666668,266.6666666666667,-23C294.44444444444446,-20.708333333333332,305.5555555555556,27.541666666666668,333.33333333333337,29C361.11111111111114,30.458333333333332,372.22222222222223,-18.708333333333332,400,-16C427.77777777777777,-13.291666666666668,438.8888888888889,40.541666666666664,466.6666666666667,42C494.44444444444446,43.458333333333336,505.5555555555556,-10.25,533.3333333333334,-9C561.1111111111111,-7.75,572.2222222222222,49.458333333333336,600,48C627.7777777777778,46.541666666666664,638.8888888888889,-14.541666666666666,666.6666666666667,-16C694.4444444444446,-17.458333333333332,705.5555555555557,37.666666666666664,733.3333333333334,41C761.1111111111111,44.333333333333336,786.1111111111111,8.541666666666666,800,0" transform="matrix(1,0,0,1,0,504)"></path><path d="M10,10C21.805555555555557,12.083333333333334,40.97222222222223,25.208333333333336,66.66666666666667,20C92.36111111111111,14.791666666666666,105.55555555555557,-14.583333333333334,133.33333333333334,-15C161.11111111111111,-15.416666666666666,172.22222222222223,19.666666666666668,200,18C227.77777777777777,16.333333333333332,238.8888888888889,-25.291666666666668,266.6666666666667,-23C294.44444444444446,-20.708333333333332,305.5555555555556,27.541666666666668,333.33333333333337,29C361.11111111111114,30.458333333333332,372.22222222222223,-18.708333333333332,400,-16C427.77777777777777,-13.291666666666668,438.8888888888889,40.541666666666664,466.6666666666667,42C494.44444444444446,43.458333333333336,505.5555555555556,-10.25,533.3333333333334,-9C561.1111111111111,-7.75,572.2222222222222,49.458333333333336,600,48C627.7777777777778,46.541666666666664,638.8888888888889,-14.541666666666666,666.6666666666667,-16C694.4444444444446,-17.458333333333332,705.5555555555557,37.666666666666664,733.3333333333334,41C761.1111111111111,44.333333333333336,786.1111111111111,8.541666666666666,800,0" transform="matrix(1,0,0,1,0,448)"></path><path d="M10,10C21.805555555555557,12.083333333333334,40.97222222222223,25.208333333333336,66.66666666666667,20C92.36111111111111,14.791666666666666,105.55555555555557,-14.583333333333334,133.33333333333334,-15C161.11111111111111,-15.416666666666666,172.22222222222223,19.666666666666668,200,18C227.77777777777777,16.333333333333332,238.8888888888889,-25.291666666666668,266.6666666666667,-23C294.44444444444446,-20.708333333333332,305.5555555555556,27.541666666666668,333.33333333333337,29C361.11111111111114,30.458333333333332,372.22222222222223,-18.708333333333332,400,-16C427.77777777777777,-13.291666666666668,438.8888888888889,40.541666666666664,466.6666666666667,42C494.44444444444446,43.458333333333336,505.5555555555556,-10.25,533.3333333333334,-9C561.1111111111111,-7.75,572.2222222222222,49.458333333333336,600,48C627.7777777777778,46.541666666666664,638.8888888888889,-14.541666666666666,666.6666666666667,-16C694.4444444444446,-17.458333333333332,705.5555555555557,37.666666666666664,733.3333333333334,41C761.1111111111111,44.333333333333336,786.1111111111111,8.541666666666666,800,0" transform="matrix(1,0,0,1,0,392)"></path><path d="M10,10C21.805555555555557,12.083333333333334,40.97222222222223,25.208333333333336,66.66666666666667,20C92.36111111111111,14.791666666666666,105.55555555555557,-14.583333333333334,133.33333333333334,-15C161.11111111111111,-15.416666666666666,172.22222222222223,19.666666666666668,200,18C227.77777777777777,16.333333333333332,238.8888888888889,-25.291666666666668,266.6666666666667,-23C294.44444444444446,-20.708333333333332,305.5555555555556,27.541666666666668,333.33333333333337,29C361.11111111111114,30.458333333333332,372.22222222222223,-18.708333333333332,400,-16C427.77777777777777,-13.291666666666668,438.8888888888889,40.541666666666664,466.6666666666667,42C494.44444444444446,43.458333333333336,505.5555555555556,-10.25,533.3333333333334,-9C561.1111111111111,-7.75,572.2222222222222,49.458333333333336,600,48C627.7777777777778,46.541666666666664,638.8888888888889,-14.541666666666666,666.6666666666667,-16C694.4444444444446,-17.458333333333332,705.5555555555557,37.666666666666664,733.3333333333334,41C761.1111111111111,44.333333333333336,786.1111111111111,8.541666666666666,800,0" transform="matrix(1,0,0,1,0,336)"></path><path d="M10,10C21.805555555555557,12.083333333333334,40.97222222222223,25.208333333333336,66.66666666666667,20C92.36111111111111,14.791666666666666,105.55555555555557,-14.583333333333334,133.33333333333334,-15C161.11111111111111,-15.416666666666666,172.22222222222223,19.666666666666668,200,18C227.77777777777777,16.333333333333332,238.8888888888889,-25.291666666666668,266.6666666666667,-23C294.44444444444446,-20.708333333333332,305.5555555555556,27.541666666666668,333.33333333333337,29C361.11111111111114,30.458333333333332,372.22222222222223,-18.708333333333332,400,-16C427.77777777777777,-13.291666666666668,438.8888888888889,40.541666666666664,466.6666666666667,42C494.44444444444446,43.458333333333336,505.5555555555556,-10.25,533.3333333333334,-9C561.1111111111111,-7.75,572.2222222222222,49.458333333333336,600,48C627.7777777777778,46.541666666666664,638.8888888888889,-14.541666666666666,666.6666666666667,-16C694.4444444444446,-17.458333333333332,705.5555555555557,37.666666666666664,733.3333333333334,41C761.1111111111111,44.333333333333336,786.1111111111111,8.541666666666666,800,0" transform="matrix(1,0,0,1,0,280)"></path><path d="M10,10C21.805555555555557,12.083333333333334,40.97222222222223,25.208333333333336,66.66666666666667,20C92.36111111111111,14.791666666666666,105.55555555555557,-14.583333333333334,133.33333333333334,-15C161.11111111111111,-15.416666666666666,172.22222222222223,19.666666666666668,200,18C227.77777777777777,16.333333333333332,238.8888888888889,-25.291666666666668,266.6666666666667,-23C294.44444444444446,-20.708333333333332,305.5555555555556,27.541666666666668,333.33333333333337,29C361.11111111111114,30.458333333333332,372.22222222222223,-18.708333333333332,400,-16C427.77777777777777,-13.291666666666668,438.8888888888889,40.541666666666664,466.6666666666667,42C494.44444444444446,43.458333333333336,505.5555555555556,-10.25,533.3333333333334,-9C561.1111111111111,-7.75,572.2222222222222,49.458333333333336,600,48C627.7777777777778,46.541666666666664,638.8888888888889,-14.541666666666666,666.6666666666667,-16C694.4444444444446,-17.458333333333332,705.5555555555557,37.666666666666664,733.3333333333334,41C761.1111111111111,44.333333333333336,786.1111111111111,8.541666666666666,800,0" transform="matrix(1,0,0,1,0,224)"></path><path d="M10,10C21.805555555555557,12.083333333333334,40.97222222222223,25.208333333333336,66.66666666666667,20C92.36111111111111,14.791666666666666,105.55555555555557,-14.583333333333334,133.33333333333334,-15C161.11111111111111,-15.416666666666666,172.22222222222223,19.666666666666668,200,18C227.77777777777777,16.333333333333332,238.8888888888889,-25.291666666666668,266.6666666666667,-23C294.44444444444446,-20.708333333333332,305.5555555555556,27.541666666666668,333.33333333333337,29C361.11111111111114,30.458333333333332,372.22222222222223,-18.708333333333332,400,-16C427.77777777777777,-13.291666666666668,438.8888888888889,40.541666666666664,466.6666666666667,42C494.44444444444446,43.458333333333336,505.5555555555556,-10.25,533.3333333333334,-9C561.1111111111111,-7.75,572.2222222222222,49.458333333333336,600,48C627.7777777777778,46.541666666666664,638.8888888888889,-14.541666666666666,666.6666666666667,-16C694.4444444444446,-17.458333333333332,705.5555555555557,37.666666666666664,733.3333333333334,41C761.1111111111111,44.333333333333336,786.1111111111111,8.541666666666666,800,0" transform="matrix(1,0,0,1,0,168)"></path><path d="M10,10C21.805555555555557,12.083333333333334,40.97222222222223,25.208333333333336,66.66666666666667,20C92.36111111111111,14.791666666666666,105.55555555555557,-14.583333333333334,133.33333333333334,-15C161.11111111111111,-15.416666666666666,172.22222222222223,19.666666666666668,200,18C227.77777777777777,16.333333333333332,238.8888888888889,-25.291666666666668,266.6666666666667,-23C294.44444444444446,-20.708333333333332,305.5555555555556,27.541666666666668,333.33333333333337,29C361.11111111111114,30.458333333333332,372.22222222222223,-18.708333333333332,400,-16C427.77777777777777,-13.291666666666668,438.8888888888889,40.541666666666664,466.6666666666667,42C494.44444444444446,43.458333333333336,505.5555555555556,-10.25,533.3333333333334,-9C561.1111111111111,-7.75,572.2222222222222,49.458333333333336,600,48C627.7777777777778,46.541666666666664,638.8888888888889,-14.541666666666666,666.6666666666667,-16C694.4444444444446,-17.458333333333332,705.5555555555557,37.666666666666664,733.3333333333334,41C761.1111111111111,44.333333333333336,786.1111111111111,8.541666666666666,800,0" transform="matrix(1,0,0,1,0,112)"></path><path d="M10,10C21.805555555555557,12.083333333333334,40.97222222222223,25.208333333333336,66.66666666666667,20C92.36111111111111,14.791666666666666,105.55555555555557,-14.583333333333334,133.33333333333334,-15C161.11111111111111,-15.416666666666666,172.22222222222223,19.666666666666668,200,18C227.77777777777777,16.333333333333332,238.8888888888889,-25.291666666666668,266.6666666666667,-23C294.44444444444446,-20.708333333333332,305.5555555555556,27.541666666666668,333.33333333333337,29C361.11111111111114,30.458333333333332,372.22222222222223,-18.708333333333332,400,-16C427.77777777777777,-13.291666666666668,438.8888888888889,40.541666666666664,466.6666666666667,42C494.44444444444446,43.458333333333336,505.5555555555556,-10.25,533.3333333333334,-9C561.1111111111111,-7.75,572.2222222222222,49.458333333333336,600,48C627.7777777777778,46.541666666666664,638.8888888888889,-14.541666666666666,666.6666666666667,-16C694.4444444444446,-17.458333333333332,705.5555555555557,37.666666666666664,733.3333333333334,41C761.1111111111111,44.333333333333336,786.1111111111111,8.541666666666666,800,0" transform="matrix(1,0,0,1,0,56)"></path></g></svg>